<?xml version="1.0" encoding="UTF-8"?>
<!DOCTYPE svg PUBLIC "-//W3C//DTD SVG 1.1//EN" "http://www.w3.org/Graphics/SVG/1.1/DTD/svg11.dtd">
<!-- Creator: CorelDRAW X8 -->
<svg xmlns="http://www.w3.org/2000/svg" xml:space="preserve" width="80mm" height="80mm" version="1.1" style="shape-rendering:geometricPrecision; text-rendering:geometricPrecision; image-rendering:optimizeQuality; fill-rule:evenodd; clip-rule:evenodd"
viewBox="0 0 8000 8000"
 xmlns:xlink="http://www.w3.org/1999/xlink">
 <defs>
  <style type="text/css">
   <![CDATA[
    .str0 {stroke:#46470D;stroke-width:300}
    .fil1 {fill:url(#id0)}
    .fil2 {fill:url(#id1)}
    .fil3 {fill:url(#id2)}
    .fil0 {fill:url(#id3)}
   ]]>
  </style>
  <linearGradient id="id0" gradientUnits="userSpaceOnUse" x1="2469.85" y1="6843.7" x2="5504.59" y2="1196.63">
   <stop offset="0" style="stop-opacity:1; stop-color:#1A451A"/>
   <stop offset="1" style="stop-opacity:1; stop-color:#5D6951"/>
  </linearGradient>
  <linearGradient id="id1" gradientUnits="userSpaceOnUse" x1="2543.51" y1="6676.91" x2="5456.48" y2="1323.09">
   <stop offset="0" style="stop-opacity:1; stop-color:#26BF73"/>
   <stop offset="1" style="stop-opacity:1; stop-color:#75FFAC"/>
  </linearGradient>
  <linearGradient id="id2" gradientUnits="userSpaceOnUse" x1="2638.25" y1="6486.39" x2="5381.28" y2="1515.2">
   <stop offset="0" style="stop-opacity:1; stop-color:#B5FFB5"/>
   <stop offset="1" style="stop-opacity:1; stop-color:#E9FCE8"/>
  </linearGradient>
  <linearGradient id="id3" gradientUnits="userSpaceOnUse" x1="2239.48" y1="7311.06" x2="5760.52" y2="688.94">
   <stop offset="0" style="stop-opacity:1; stop-color:#F2923B"/>
   <stop offset="0.0117647" style="stop-opacity:1; stop-color:#DC8533"/>
   <stop offset="1" style="stop-opacity:1; stop-color:#F5EE8A"/>
  </linearGradient>
 </defs>
 <g id="Layer_x0020_1">
  <metadata id="CorelCorpID_0Corel-Layer"/>
  <circle class="fil0 str0" cx="4000" cy="4000" r="3750"/>
  <path class="fil1" d="M4527 858c-1290,-232 -2599,347 -3293,1463l-237 377 980 608c35,-95 76,-186 124,-274l77 43 13 -23 0 0c214,-386 549,-687 955,-857l273 -115 25 1401 -215 -710 -92 74 -20 648 -2309 1237 127 358c244,688 711,1268 1332,1652 478,297 1023,464 1587,481l4 0 440 12 35 -1107c-120,21 -240,32 -362,32l-3 -199 -27 1 -1 0c-344,7 -682,-78 -983,-245 -82,-45 -161,-97 -236,-152l-236 -180 1430 -862 37 21 -720 769 71 28 624 -335 2228 1383 246 -292c104,-123 198,-253 283,-389 605,-975 642,-2195 102,-3206l-208 -390 -1013 543c60,70 115,143 166,219l-160 96 14 22c225,376 319,820 265,1255l-37 295 -1287 -712 904 210 -20 -130 -576 -359 54 -2031 17 -595 -378 -65z"/>
  <path class="fil2" d="M4378 969c-1239,-182 -2472,411 -3100,1497l-116 198 872 503c21,-46 43,-91 67,-135l77 43 13 -23 0 0c214,-386 549,-687 955,-857l273 -115 25 1401 -167 -550 0 692 -2271 1312 71 181c254,650 717,1188 1321,1537 466,269 991,411 1529,410l4 0 226 -1 0 -912c-61,5 -123,8 -186,8l-3 -199 -27 1 -1 0c-344,7 -682,-78 -983,-245 -82,-45 -161,-97 -236,-152l-236 -180 1430 -862 37 21 -407 434 385 -223 2273 1313 121 -155c96,-120 182,-247 258,-379 549,-951 547,-2116 1,-3063l-114 -197 -826 477c31,40 60,81 88,123l-160 96 14 22c225,376 319,820 265,1255l-37 295 -1287 -712 686 159 -626 -361 -12 -2215 -1 -415 -195 -27z"/>
  <path class="fil3" d="M4296 1164l6 241 55 2329 169 94 0 0 1287 712 37 -295c54,-435 -40,-879 -265,-1255l-14 -22 160 -96 614 -370 13 22c527,878 548,1966 52,2862 -69,125 -148,246 -235,359l-1 1 -13 19 -2209 -1223 -37 -21 -1430 862 236 180 0 0 4 2 0 0 3 3 4 2 0 0 3 3 4 2 4 3 0 0 3 3 0 0 4 2 0 0 3 3 0 0 4 2 3 3 0 0 4 2 4 3 3 2 0 0 4 3 3 2 4 3 0 0 4 2 3 3 4 2 0 0 3 3 4 2 4 3 3 2 4 3 4 2 3 3 4 2 4 2 3 3 4 2 0 0 4 3 3 2 4 2 4 3 3 2 4 3 4 2 4 2 3 3 4 2 4 2 4 3 3 2 4 2 4 2 4 3 3 2 4 2 4 3 4 2 3 2 4 2 4 2 4 3 4 2 3 2 4 2 4 2 4 3 4 2 3 2 4 2 4 2c301,167 639,252 983,245l1 0 27 -1 0 7 3 192 13 705 -29 0c-503,9 -995,-115 -1435,-358 -570,-315 -1012,-810 -1261,-1413l-8 -21 2198 -1323 -30 -1668 -273 115c-7,3 -13,6 -19,8 -6,3 -13,6 -19,8 -6,3 -13,6 -19,9 -6,3 -12,6 -18,8 -7,3 -13,6 -19,9 -6,3 -12,6 -18,9 -7,3 -13,6 -19,9 -6,4 -12,7 -18,10 -6,3 -12,6 -18,9 -6,4 -12,7 -18,10 -6,3 -12,7 -18,10 -6,3 -12,7 -18,10 -6,3 -11,7 -17,10 -6,4 -12,7 -18,11 -6,3 -11,7 -17,10 -6,4 -12,8 -18,11 -5,4 -11,8 -17,11 -5,4 -11,8 -17,11 -5,4 -11,8 -17,12 -5,4 -11,7 -16,11 -6,4 -11,8 -17,12 -6,4 -11,8 -17,12l0 0c-5,4 -10,8 -16,12 -5,4 -11,8 -16,12 -6,4 -11,8 -16,12 -6,4 -11,9 -16,13 -6,4 -11,8 -16,12 -5,5 -11,9 -16,13l0 0c-5,5 -10,9 -16,13 -5,5 -10,9 -15,13 -5,5 -10,9 -15,14l0 0c-5,4 -10,9 -15,13l0 0c-5,5 -10,9 -15,14 -5,5 -10,9 -15,14l0 0c-5,4 -10,9 -15,14l0 0c-5,4 -10,9 -15,14 -5,5 -9,9 -14,14l0 0c-5,5 -10,10 -15,15 -4,4 -9,9 -14,14l0 0c-4,5 -9,10 -14,15 -4,5 -9,10 -14,15l0 0c-4,5 -9,10 -13,15l0 0c-5,5 -9,10 -14,15l0 0c-4,5 -9,10 -13,15 -5,5 -9,11 -14,16l0 0c-4,5 -8,10 -13,15l0 0c-4,6 -8,11 -13,16 -4,5 -8,11 -12,16l0 0c-5,5 -9,11 -13,16l0 0c-4,5 -8,11 -12,16l0 0c-5,6 -9,11 -13,16 -4,6 -8,11 -12,17 -4,5 -8,11 -12,17 -4,5 -8,11 -12,16 -4,6 -8,11 -11,17l0 0c-4,6 -8,11 -12,17 -4,6 -7,12 -11,17l0 0c-4,6 -8,12 -11,18 -4,5 -8,11 -11,17 -4,6 -8,12 -11,17 -4,6 -7,12 -11,18l0 0c-3,6 -7,12 -10,18 -4,6 -7,12 -11,18 -3,6 -6,12 -10,18l-13 23 -77 -43 -712 -395 13 -24c568,-1023 1710,-1601 2870,-1452l2 0 22 3zm-2105 1888l0 0z"/>
 </g>
</svg>
